<svg width="64" height="63" viewBox="0 0 64 63" fill="none" xmlns="http://www.w3.org/2000/svg">
<path d="M3.984 0.367998C6.224 0.559996 8.176 1.168 9.84 2.192C11.504 3.152 12.336 4.624 12.336 6.608C12.336 8.08 11.632 9.264 10.224 10.16C8.88 10.992 7.248 11.408 5.328 11.408C3.472 11.408 2.192 10.928 1.488 9.96799C0.784 9.008 0.432 8.016 0.432 6.992C0.432 5.072 0.624 3.472 1.008 2.192C1.456 0.911999 2.448 0.303999 3.984 0.367998ZM11.664 42.896V45.68C11.664 48.176 11.728 50.544 11.856 52.784C12.048 54.96 12.272 57.168 12.528 59.408C12.464 60.048 11.984 60.72 11.088 61.424C10.192 62.064 9.392 62.384 8.688 62.384C7.472 62.384 6.224 62.16 4.944 61.712C3.728 61.2 2.992 60.592 2.736 59.888C2.352 57.84 2.16 56.016 2.16 54.416C2.16 49.168 2 43.28 1.68 36.752C1.424 30.992 1.296 26.96 1.296 24.656C1.296 23.504 1.872 22.512 3.024 21.68C4.176 20.848 5.392 20.432 6.672 20.432C8.528 20.432 9.808 20.848 10.512 21.68C11.28 22.512 11.664 23.824 11.664 25.616V42.896ZM60.1305 62.384C57.9545 62.384 56.2905 62.064 55.1385 61.424C53.9865 60.72 52.7385 59.44 51.3945 57.584C49.7305 59.056 47.2345 60.24 43.9065 61.136C40.6425 62.032 37.8265 62.48 35.4585 62.48C31.5545 62.48 28.3865 61.424 25.9545 59.312C23.5865 57.136 22.4025 53.968 22.4025 49.808C22.4025 48.016 22.8825 46.384 23.8425 44.912C24.8665 43.376 26.1785 42.032 27.7785 40.88C29.5705 39.664 31.6825 38.704 34.1145 38C36.6105 37.296 38.8825 36.944 40.9305 36.944C44.3865 36.944 47.4585 37.264 50.1465 37.904V37.808C50.1465 34.352 49.2825 31.984 47.5545 30.704C45.8905 29.36 43.2025 28.688 39.4905 28.688C37.1225 28.688 35.0745 29.744 33.3465 31.856C32.7065 32.688 31.3625 33.104 29.3145 33.104C28.2905 33.104 27.5225 32.688 27.0105 31.856C26.5625 30.96 26.3385 30.064 26.3385 29.168C26.3385 27.312 27.1065 25.712 28.6425 24.368C30.2425 23.024 32.1625 22.032 34.4025 21.392C36.6425 20.688 38.7225 20.336 40.6425 20.336C42.4985 20.336 44.7065 20.72 47.2665 21.488C49.8265 22.256 51.9065 23.28 53.5065 24.56C55.4265 26.224 56.8985 28.176 57.9225 30.416C59.0105 32.592 59.5545 34.992 59.5545 37.616C59.5545 38.448 59.4905 39.696 59.3625 41.36C59.2345 43.28 59.1705 44.848 59.1705 46.064C59.1705 46.64 59.1065 47.376 58.9785 48.272C58.8505 49.424 58.7865 50.384 58.7865 51.152C58.7865 51.984 59.0425 52.784 59.5545 53.552C60.0665 54.32 60.7705 54.96 61.6665 55.472C62.4985 55.92 63.0425 56.4 63.2985 56.912C63.5545 57.424 63.6825 58 63.6825 58.64C63.6825 59.28 63.2665 60.08 62.4345 61.04C61.6665 61.936 60.8985 62.384 60.1305 62.384ZM40.9305 44.048C38.4345 44.048 36.2265 44.528 34.3065 45.488C32.3865 46.448 31.4265 48.144 31.4265 50.576C31.4265 51.792 31.8425 52.816 32.6745 53.648C33.5705 54.48 34.5305 54.896 35.5545 54.896C38.3065 54.896 40.6105 54.608 42.4665 54.032C44.3225 53.456 46.5625 52.4 49.1865 50.864C49.5065 49.84 49.6985 48.4 49.7625 46.544C49.7625 45.84 49.7945 45.296 49.8585 44.912C46.4025 44.336 43.4265 44.048 40.9305 44.048Z" fill="black"/>
</svg>
