<svg width="438" height="105" viewBox="0 0 438 105" fill="none" xmlns="http://www.w3.org/2000/svg">
<path d="M0 10.4274C0.981847 10.4274 1.78598 10.4274 2.59456 10.4274C23.0756 10.4274 43.5567 10.454 64.0378 10.4141C72.6567 10.3963 80.0583 13.2619 86.0694 19.4817C100.548 34.4538 94.8482 59.7419 75.3623 67.0991C74.8692 67.2857 74.3805 67.4811 73.7407 67.7344C77.8991 71.8883 81.9598 75.9535 86.0294 80.0097C90.0989 84.0659 94.1729 88.1177 98.4468 92.3694C97.8071 92.4183 97.4783 92.4627 97.1496 92.4627C92.3869 92.4627 87.6199 92.4449 82.8572 92.476C82.1153 92.4805 81.6044 92.2361 81.0935 91.7208C73.8918 84.4924 66.659 77.2952 59.4706 70.0491C58.7287 69.2982 57.9823 69.0272 56.9516 69.0317C48.0972 69.0672 39.2428 69.0361 30.3884 69.0583C27.9671 69.0628 25.9812 68.2719 24.715 66.135C22.3604 62.1632 25.1815 57.3117 29.8775 57.2762C35.0666 57.2362 40.2602 57.2673 45.4538 57.2673C51.8558 57.2673 58.2533 57.2939 64.6553 57.2673C75.0114 57.2228 82.8572 49.0526 82.4085 38.8299C82.022 29.9977 74.7981 22.716 65.9437 22.2362C65.0907 22.1918 64.2377 22.1962 63.3847 22.1962C46.4578 22.1962 29.5354 22.1962 12.6085 22.174C12.0976 22.174 11.4401 22.0052 11.0935 21.6675C7.45937 18.1089 3.87852 14.5014 0.284336 10.9072C0.213252 10.8361 0.18215 10.7339 0.00444031 10.4274H0Z" fill="white"/>
<path d="M65.2587 92.4579C64.4502 92.4579 63.9215 92.4579 63.3928 92.4579C53.33 92.4579 43.2672 92.4357 33.2043 92.4668C28.6372 92.4846 24.1367 92.2802 19.7561 90.7208C7.27204 86.2825 -0.929272 73.2075 0.639018 60.0614C2.45166 44.8628 14.6292 33.9114 29.9034 33.8403C41.4234 33.787 52.9435 33.8181 64.4679 33.8359C69.1462 33.8447 72.105 38.092 70.2435 42.1438C69.1772 44.4673 67.2624 45.6047 64.7078 45.6091C57.0974 45.618 49.487 45.6091 41.881 45.6136C37.5804 45.6136 33.271 45.4981 28.9748 45.6802C19.5384 46.0801 12.1813 53.8415 12.2212 63.1758C12.2612 72.6166 19.6451 80.3825 29.1303 80.6269C36.914 80.8268 44.7022 80.6935 52.4903 80.6713C53.2633 80.6713 53.8098 80.8801 54.3563 81.4354C57.755 84.8786 61.1847 88.2817 64.6057 91.7026C64.77 91.867 64.9167 92.0581 65.2587 92.4535V92.4579Z" fill="white"/>
<path d="M132.883 41.238C129.509 41.238 126.534 40.5864 123.956 39.2833C121.379 37.9802 119.381 36.1703 117.962 33.8536C116.558 31.5225 115.855 28.8728 115.855 25.9045C115.855 22.9363 116.565 20.2866 117.984 17.9555C119.403 15.6243 121.401 13.7999 123.978 12.4823C126.555 11.1647 129.524 10.5059 132.883 10.5059C135.373 10.5059 137.647 10.8606 139.703 11.5701C141.759 12.2796 143.525 13.2932 145.002 14.6108C146.493 15.9139 147.652 17.4487 148.477 19.2151L144.394 20.3228C143.409 18.5419 141.94 17.1591 139.985 16.1745C138.045 15.1754 135.706 14.6759 132.97 14.6759C130.306 14.6759 127.996 15.1392 126.041 16.0659C124.087 16.9781 122.588 18.2812 121.546 19.9753C120.518 21.6549 120.004 23.6168 120.004 25.8611C120.004 28.1054 120.518 30.0745 121.546 31.7686C122.574 33.4482 124.051 34.7513 125.976 35.678C127.917 36.6047 130.219 37.068 132.883 37.068C135.648 37.068 138.009 36.5757 139.963 35.5911C141.932 34.5921 143.409 33.2021 144.394 31.4211L148.477 32.507C147.666 34.2735 146.515 35.8155 145.024 37.1332C143.547 38.4363 141.773 39.4498 139.703 40.1738C137.647 40.8833 135.373 41.238 132.883 41.238ZM167.98 41.2597C164.621 41.2597 161.653 40.6082 159.076 39.305C156.498 38.0019 154.5 36.1992 153.081 33.8971C151.662 31.5949 150.953 28.9741 150.953 26.0348C150.953 23.0666 151.662 20.4097 153.081 18.064C154.5 15.7184 156.498 13.8868 159.076 12.5692C161.653 11.2371 164.621 10.5711 167.98 10.5711C171.412 10.5711 174.409 11.2299 176.972 12.5475C179.549 13.8506 181.526 15.675 182.901 18.0206C184.291 20.3518 184.986 23.0087 184.986 25.9914C184.986 28.9741 184.291 31.6238 182.901 33.9405C181.526 36.2427 179.549 38.0381 176.972 39.3268C174.409 40.6154 171.412 41.2597 167.98 41.2597ZM155.101 25.948C155.101 28.1922 155.615 30.1542 156.643 31.8338C157.686 33.5134 159.177 34.8092 161.117 35.7214C163.072 36.6336 165.381 37.0897 168.046 37.0897C170.753 37.0897 173.063 36.6336 174.974 35.7214C176.885 34.8092 178.333 33.5206 179.318 31.8555C180.317 30.1904 180.816 28.2357 180.816 25.9914C180.816 23.7471 180.31 21.778 179.296 20.0839C178.297 18.3898 176.835 17.0795 174.909 16.1528C172.998 15.2116 170.71 14.7411 168.046 14.7411C165.381 14.7411 163.072 15.2044 161.117 16.1311C159.177 17.0433 157.686 18.3464 156.643 20.0405C155.615 21.72 155.101 23.6892 155.101 25.948ZM188.7 10.8534H192.067L206.01 35.4174L220.605 10.8534H223.841L223.624 40.9991H219.476L219.563 20.5617L207.292 40.9991H204.468L192.935 20.7572L192.87 40.9991H188.7V10.8534ZM227.599 10.8534H245.734C248.963 10.8534 251.627 11.3891 253.726 12.4606C255.84 13.5321 257.382 14.9583 258.352 16.7392C259.337 18.5201 259.829 20.511 259.829 22.7119C259.829 25.0285 259.294 27.0991 258.222 28.9234C257.151 30.7478 255.572 32.1885 253.487 33.2455C251.417 34.288 248.926 34.8165 246.016 34.831L237.198 34.8744V30.7044L245.994 30.661C248.137 30.6465 249.933 30.299 251.381 29.6184C252.829 28.9379 253.9 28.004 254.595 26.8167C255.305 25.6294 255.659 24.2611 255.659 22.7119C255.659 21.3798 255.319 20.1346 254.638 18.9762C253.972 17.8034 252.894 16.855 251.402 16.1311C249.926 15.3926 248.036 15.0234 245.734 15.0234H231.769L231.725 40.9991H227.533L227.599 10.8534ZM263.543 10.8534H267.713V36.8291H288.52V40.9991H263.543V10.8534ZM292.299 10.8534H296.447L296.382 40.9991H292.212L292.299 10.8534ZM315.147 10.8534H318.622L333.13 40.9991H328.005L316.885 17.6297L305.287 40.9991H300.161L315.147 10.8534ZM336.822 10.8534H339.798L363.167 33.8753L363.211 10.8534H367.381V40.9991H364.318L340.992 18.0423V40.9991H336.822V10.8534ZM387.688 41.238C384.314 41.238 381.339 40.5864 378.761 39.2833C376.184 37.9802 374.186 36.1703 372.767 33.8536C371.363 31.5225 370.66 28.8728 370.66 25.9045C370.66 22.9363 371.37 20.2866 372.789 17.9555C374.208 15.6243 376.206 13.7999 378.783 12.4823C381.36 11.1647 384.329 10.5059 387.688 10.5059C390.178 10.5059 392.452 10.8606 394.508 11.5701C396.564 12.2796 398.33 13.2932 399.807 14.6108C401.298 15.9139 402.457 17.4487 403.282 19.2151L399.199 20.3228C398.214 18.5419 396.745 17.1591 394.79 16.1745C392.85 15.1754 390.511 14.6759 387.775 14.6759C385.111 14.6759 382.801 15.1392 380.846 16.0659C378.892 16.9781 377.393 18.2812 376.351 19.9753C375.323 21.6549 374.809 23.6168 374.809 25.8611C374.809 28.1054 375.323 30.0745 376.351 31.7686C377.379 33.4482 378.856 34.7513 380.781 35.678C382.721 36.6047 385.024 37.068 387.688 37.068C390.453 37.068 392.813 36.5757 394.768 35.5911C396.737 34.5921 398.214 33.2021 399.199 31.4211L403.282 32.507C402.471 34.2735 401.32 35.8155 399.829 37.1332C398.352 38.4363 396.578 39.4498 394.508 40.1738C392.452 40.8833 390.178 41.238 387.688 41.238ZM406.974 10.8534H434.427V15.0234H411.144V23.7761H428.78V27.9678H411.144V36.8291H434.514V40.9991H406.974V10.8534ZM115.855 61.8534H133.991C137.205 61.8534 139.862 62.3891 141.961 63.4606C144.075 64.5321 145.625 65.9655 146.609 67.7609C147.594 69.5419 148.086 71.5328 148.086 73.7336C148.086 75.4856 147.768 77.1145 147.13 78.6203C146.493 80.1117 145.538 81.4003 144.264 82.4863C142.989 83.5722 141.418 84.3758 139.551 84.8971L146.457 91.9991H140.789L134.686 85.8527L125.281 85.8961V81.7261L134.251 81.6827C136.394 81.6682 138.182 81.3207 139.616 80.6402C141.064 79.9596 142.142 79.0257 142.852 77.8384C143.561 76.6511 143.916 75.2829 143.916 73.7336C143.916 72.387 143.576 71.1346 142.895 69.9762C142.229 68.8034 141.151 67.855 139.659 67.1311C138.182 66.3926 136.293 66.0234 133.991 66.0234H120.025V91.9991H115.855V61.8534ZM151.778 61.8534H179.231V66.0234H155.948V74.7761H173.584V78.9678H155.948V87.8291H179.318V91.9991H151.778V61.8534ZM197.996 61.8534H201.471L215.979 91.9991H210.853L199.733 68.6297L188.136 91.9991H183.01L197.996 61.8534ZM219.802 61.8534H237.068C240.311 61.8534 243.033 62.5339 245.234 63.895C247.45 65.2415 249.093 67.037 250.164 69.2812C251.236 71.511 251.772 73.9653 251.772 76.6439C251.772 79.5108 251.229 82.1026 250.143 84.4192C249.057 86.7359 247.399 88.582 245.169 89.9575C242.954 91.3186 240.21 91.9991 236.938 91.9991H219.671L219.802 61.8534ZM236.938 87.8291C239.269 87.8291 241.238 87.3151 242.845 86.2871C244.452 85.259 245.647 83.898 246.429 82.2039C247.211 80.5099 247.602 78.6565 247.602 76.6439C247.602 74.8195 247.211 73.0965 246.429 71.4748C245.661 69.8532 244.481 68.5356 242.889 67.522C241.31 66.5085 239.37 66.0017 237.068 66.0017H223.972L223.841 87.8508L236.938 87.8291ZM263.239 79.9017L249.6 61.8534H254.856L265.368 75.8186L276.596 61.8534H281.722L267.387 79.88L267.344 91.9991H263.174L263.239 79.9017Z" fill="white"/>
</svg>
